<svg xmlns="http://www.w3.org/2000/svg" width="26" height="25" fill="none"><path fill="#fff" d="M7 1.673 7.519.82 7 .504l-.519.315zm6 3.642-.519.855.519.315.519-.315zm-12 0L.481 4.46 0 4.752v.563zm0 7.803H0v.462l.351.3zM13 23.35l-.649.76.649.554.649-.553zm12-10.232.649.761.351-.299v-.462zm0-7.803h1v-.563l-.481-.292zm-6-3.642.519-.854L19 .504l-.519.315zm-12.519.855 6 3.642 1.038-1.71-6-3.641zM1.52 6.17l6-3.642L6.48.818l-6 3.642zM2 13.118V5.315H0v7.803zm11.649 9.47-12-10.23L.35 13.878l12 10.232zm0 1.523 12-10.232-1.298-1.521-12 10.23zM26 13.118V5.315h-2v7.803zm-.481-8.658-6-3.641-1.038 1.71 6 3.64zM18.48.82l-6 3.641 1.038 1.71 6-3.642z"/></svg>